<?xml version="1.0" standalone="no"?>
<!DOCTYPE svg PUBLIC "-//W3C//DTD SVG 20010904//EN"
 "http://www.w3.org/TR/2001/REC-SVG-20010904/DTD/svg10.dtd">
<svg version="1.0" xmlns="http://www.w3.org/2000/svg"
 width="512.000000pt" height="512.000000pt" viewBox="0 0 512.000000 512.000000"
 preserveAspectRatio="xMidYMid meet">
<metadata>
Created by potrace 1.16, written by Peter Selinger 2001-2019
</metadata>
<g transform="translate(0.000000,512.000000) scale(0.100000,-0.100000)"
fill="#000000" stroke="none">
<path d="M1138 4289 c-109 -13 -296 -62 -381 -100 -175 -80 -326 -209 -410
-350 -183 -310 -125 -742 160 -1206 25 -40 47 -73 49 -73 2 0 22 26 45 58 23
31 66 87 96 123 29 36 53 71 53 76 0 5 -25 58 -56 116 -93 178 -144 349 -144
481 0 230 134 419 361 509 112 45 194 59 364 66 l159 6 19 50 c10 28 36 92 58
142 21 51 39 97 39 103 0 12 -301 11 -412 -1z"/>
<path d="M1851 4203 c-42 -84 -101 -223 -101 -237 0 -9 29 -19 83 -30 45 -9
130 -29 189 -45 l107 -29 133 63 c73 34 170 77 216 95 46 18 79 36 75 41 -27
26 -519 170 -633 185 l-45 6 -24 -49z"/>
<path d="M2835 3831 c-135 -46 -285 -104 -285 -111 0 -3 33 -18 73 -34 281
-112 655 -326 911 -521 l38 -29 -6 44 c-19 121 -60 339 -70 369 -9 27 -29 45
-101 91 -151 96 -400 230 -426 229 -13 0 -73 -17 -134 -38z"/>
<path d="M3864 3260 c17 -141 36 -329 36 -364 0 -35 9 -47 98 -140 53 -55 117
-123 141 -151 l43 -50 24 30 c29 36 124 169 148 206 l17 26 -94 104 c-90 99
-197 201 -351 334 l-69 60 7 -55z"/>
<path d="M861 2463 c-40 -54 -81 -112 -92 -129 l-19 -32 94 -103 c125 -139
399 -389 412 -376 3 3 -1 61 -10 129 -8 68 -18 166 -22 218 l-7 94 -119 125
c-66 68 -127 135 -135 148 -8 12 -19 23 -23 23 -4 0 -40 -44 -79 -97z"/>
<path d="M4470 2444 c-47 -63 -89 -121 -94 -128 -7 -10 8 -49 51 -133 123
-238 163 -419 132 -589 -31 -171 -172 -330 -356 -403 -91 -36 -248 -62 -388
-65 l-130 -3 -18 -49 c-10 -27 -36 -91 -58 -143 -27 -62 -37 -97 -30 -104 6
-6 91 -8 233 -4 297 7 431 36 618 134 211 110 362 295 421 518 29 107 32 312
6 433 -27 124 -72 254 -132 377 -58 118 -152 275 -163 274 -4 0 -45 -52 -92
-115z"/>
<path d="M1550 1969 c0 -33 61 -363 76 -412 12 -40 460 -297 518 -297 35 0
416 132 416 144 0 2 -26 14 -57 26 -111 44 -419 199 -543 273 -69 41 -189 120
-267 175 -79 56 -143 97 -143 91z"/>
<path d="M2870 1207 c-63 -30 -159 -71 -213 -92 -53 -21 -94 -42 -90 -46 11
-9 225 -81 355 -119 104 -29 321 -81 324 -77 17 21 124 267 124 286 0 6 -8 11
-17 11 -16 0 -325 74 -355 85 -7 3 -65 -19 -128 -48z"/>
</g>
</svg>
